<svg width="180" height="72" viewBox="0 0 180 72" fill="none" xmlns="http://www.w3.org/2000/svg">
<rect x="1" y="1" width="178" height="70" rx="4" stroke="white" stroke-width="2"/>
<path d="M41.8485 37.6734H26.8969C25.848 37.6734 25 38.5035 25 39.5301C25 40.5568 25.848 41.3868 26.8969 41.3868H44.1247C44.1247 41.3868 45.0174 40.5131 44.0578 39.0933C43.0759 37.6734 41.8485 37.6734 41.8485 37.6734Z" fill="white"/>
<path d="M41.0897 22.0526L31.8063 37.7798C31.293 38.6753 31.5831 39.8112 32.4981 40.3136C33.413 40.816 34.5735 40.532 35.0867 39.6364L44.3702 23.9093C44.8834 23.0137 44.5933 21.8779 43.6784 21.3755C42.7634 20.8512 41.603 21.157 41.0897 22.0526Z" fill="white"/>
<path d="M52.4486 44.5334L42.9197 28.3475C42.9197 28.3475 41.5361 29.396 41.5361 31.4711C41.5361 33.5462 42.4065 34.9442 42.4065 34.9442L49.1682 46.4119C49.6814 47.3075 50.8419 47.6133 51.7568 47.089C52.6495 46.5648 52.9619 45.4289 52.4486 44.5334Z" fill="white"/>
<path d="M53.4079 37.6734H48.119C47.0702 37.6734 46.2222 38.5035 46.2222 39.5301C46.2222 40.5568 47.0702 41.3868 48.119 41.3868H53.4079C54.4567 41.3868 55.3047 40.5568 55.3047 39.5301C55.3047 38.5253 54.4567 37.6734 53.4079 37.6734Z" fill="white"/>
<path d="M41.2011 25.4637L39.1927 22.0343C38.6794 21.1606 37.4967 20.8548 36.6041 21.3572C35.7114 21.8596 35.399 23.0173 35.9123 23.891L37.9207 27.3204C38.434 28.1941 39.6167 28.4999 40.5093 27.9975C41.402 27.4951 41.7144 26.3593 41.2011 25.4637Z" fill="white"/>
<path d="M27.8336 44.5098L29.0387 42.4784C29.0387 42.4784 29.3288 41.9104 30.4669 41.9104C31.672 41.9104 32.8324 42.8934 32.9217 43.2647L31.1141 46.3665C30.6008 47.262 29.4404 47.5679 28.5254 47.0436C27.6105 46.5412 27.3204 45.4054 27.8336 44.5098Z" fill="white"/>
<path d="M76.3709 48.2066H73.7479L72.3111 43.7874H67.3169L65.9482 48.2066H63.3945L68.3425 33.1615H71.3986L76.3709 48.2066ZM71.878 41.9333L70.5786 38.0047C70.4411 37.6034 70.1836 36.6583 69.8036 35.1705H69.7574C69.6061 35.8104 69.3624 36.7555 69.0274 38.0047L67.7512 41.9333H71.878Z" fill="white"/>
<path d="M89.0952 42.6485C89.0952 44.4935 88.5858 45.9519 87.5671 47.0225C86.6547 47.9755 85.5216 48.4515 84.1691 48.4515C82.7092 48.4515 81.6605 47.9382 81.0218 46.9117H80.9756V52.6266H78.5131V40.929C78.5131 39.769 78.4819 38.5786 78.4219 37.3576H80.5875L80.7249 39.0771H80.7711C81.5923 37.7816 82.8386 37.1349 84.511 37.1349C85.8184 37.1349 86.9099 37.6402 87.7831 38.6521C88.6586 39.665 89.0952 40.9968 89.0952 42.6485ZM86.5865 42.7367C86.5865 41.6808 86.344 40.8102 85.8566 40.1251C85.3241 39.4107 84.6092 39.0534 83.7129 39.0534C83.1054 39.0534 82.5533 39.2524 82.0601 39.6447C81.5658 40.0404 81.2424 40.557 81.0911 41.1969C81.0148 41.4953 80.9767 41.7395 80.9767 41.9317V43.7406C80.9767 44.5297 81.2239 45.1956 81.7182 45.7394C82.2126 46.2831 82.8547 46.5545 83.6447 46.5545C84.5722 46.5545 85.2941 46.204 85.8104 45.5053C86.3278 44.8055 86.5865 43.883 86.5865 42.7367Z" fill="white"/>
<path d="M101.843 42.6485C101.843 44.4935 101.334 45.9519 100.314 47.0225C99.4025 47.9755 98.2695 48.4515 96.917 48.4515C95.4571 48.4515 94.4083 47.9382 93.7708 46.9117H93.7246V52.6266H91.2621V40.929C91.2621 39.769 91.231 38.5786 91.1709 37.3576H93.3365L93.474 39.0771H93.5201C94.3402 37.7816 95.5864 37.1349 97.26 37.1349C98.5663 37.1349 99.6578 37.6402 100.533 38.6521C101.405 39.665 101.843 40.9968 101.843 42.6485ZM99.3344 42.7367C99.3344 41.6808 99.0907 40.8102 98.6033 40.1251C98.0708 39.4107 97.3582 39.0534 96.4608 39.0534C95.8521 39.0534 95.3012 39.2524 94.8068 39.6447C94.3125 40.0404 93.9902 40.557 93.8389 41.1969C93.7639 41.4953 93.7246 41.7395 93.7246 41.9317V43.7406C93.7246 44.5297 93.9718 45.1956 94.4638 45.7394C94.9581 46.282 95.6003 46.5545 96.3926 46.5545C97.3201 46.5545 98.042 46.204 98.5582 45.5053C99.0757 44.8055 99.3344 43.883 99.3344 42.7367Z" fill="white"/>
<path d="M116.096 43.9863C116.096 45.2661 115.642 46.3073 114.731 47.1111C113.73 47.9895 112.336 48.4282 110.544 48.4282C108.89 48.4282 107.564 48.1162 106.561 47.491L107.131 45.482C108.212 46.1219 109.398 46.443 110.691 46.443C111.618 46.443 112.34 46.2372 112.859 45.828C113.375 45.4187 113.633 44.8693 113.633 44.1842C113.633 43.5737 113.42 43.0593 112.994 42.6421C112.57 42.225 111.862 41.8372 110.873 41.4788C108.182 40.4964 106.838 39.0572 106.838 37.1647C106.838 35.9279 107.309 34.9138 108.253 34.1247C109.193 33.3345 110.447 32.9399 112.016 32.9399C113.414 32.9399 114.576 33.1785 115.504 33.6544L114.888 35.6193C114.022 35.158 113.042 34.9274 111.946 34.9274C111.08 34.9274 110.403 35.1365 109.918 35.5526C109.508 35.9245 109.302 36.3779 109.302 36.9149C109.302 37.5095 109.537 38.0013 110.008 38.388C110.418 38.7452 111.163 39.1318 112.244 39.549C113.567 40.0702 114.538 40.6795 115.163 41.3782C115.785 42.0746 116.096 42.9463 116.096 43.9863Z" fill="white"/>
<path d="M124.238 39.1673H121.523V44.4344C121.523 45.7741 122.002 46.4434 122.96 46.4434C123.4 46.4434 123.765 46.4061 124.054 46.3315L124.122 48.1618C123.637 48.3393 122.998 48.4286 122.207 48.4286C121.235 48.4286 120.475 48.1381 119.926 47.5581C119.38 46.977 119.105 46.0025 119.105 44.6334V39.165H117.488V37.3562H119.105V35.3698L121.523 34.6554V37.3562H124.238V39.1673Z" fill="white"/>
<path d="M136.484 42.6915C136.484 44.359 135.997 45.7281 135.024 46.7987C134.004 47.9009 132.651 48.4504 130.963 48.4504C129.337 48.4504 128.042 47.9224 127.077 46.8665C126.111 45.8106 125.628 44.4777 125.628 42.8712C125.628 41.1901 126.125 39.8131 127.122 38.7425C128.116 37.6708 129.458 37.1349 131.146 37.1349C132.772 37.1349 134.081 37.6628 135.068 38.7199C136.013 39.7453 136.484 41.0691 136.484 42.6915ZM133.929 42.7695C133.929 41.7689 133.711 40.9109 133.269 40.1952C132.752 39.3293 132.014 38.8974 131.058 38.8974C130.068 38.8974 129.316 39.3304 128.8 40.1952C128.358 40.912 128.139 41.7836 128.139 42.8147C128.139 43.8152 128.358 44.6733 128.8 45.3878C129.332 46.2538 130.076 46.6856 131.036 46.6856C131.976 46.6856 132.714 46.2447 133.247 45.3652C133.701 44.636 133.929 43.7688 133.929 42.7695Z" fill="white"/>
<path d="M144.487 39.4774C144.244 39.4333 143.984 39.4107 143.711 39.4107C142.845 39.4107 142.175 39.7306 141.704 40.3716C141.294 40.9369 141.088 41.6514 141.088 42.514V48.2062H138.627L138.65 40.7741C138.65 39.5237 138.619 38.3853 138.558 37.3587H140.702L140.793 39.4344H140.861C141.121 38.721 141.531 38.1467 142.092 37.716C142.641 37.3282 143.233 37.1349 143.872 37.1349C144.099 37.1349 144.305 37.1507 144.487 37.179V39.4774Z" fill="white"/>
<path d="M155.501 42.2661C155.501 42.6979 155.472 43.062 155.411 43.3593H148.024C148.053 44.431 148.409 45.2507 149.096 45.8159C149.718 46.3213 150.523 46.5745 151.512 46.5745C152.606 46.5745 153.603 46.4038 154.501 46.0612L154.887 47.7344C153.838 48.1821 152.6 48.4048 151.171 48.4048C149.452 48.4048 148.103 47.9097 147.122 46.9205C146.142 45.9312 145.651 44.6029 145.651 42.9365C145.651 41.3006 146.108 39.9383 147.021 38.8519C147.978 37.6919 149.27 37.112 150.896 37.112C152.494 37.112 153.703 37.6919 154.524 38.8519C155.174 39.7732 155.501 40.9128 155.501 42.2661ZM153.153 41.6409C153.169 40.9264 153.009 40.3091 152.675 39.7879C152.249 39.1175 151.594 38.7829 150.713 38.7829C149.908 38.7829 149.253 39.1096 148.753 39.7653C148.343 40.2865 148.099 40.9117 148.024 41.6397H153.153V41.6409Z" fill="white"/>
<path d="M71.0648 23.9044C71.0648 25.2351 70.6571 26.2367 69.8429 26.9094C69.0887 27.53 68.0168 27.8409 66.6285 27.8409C65.9401 27.8409 65.3511 27.8115 64.8579 27.7528V20.4823C65.5012 20.3806 66.1942 20.3286 66.9427 20.3286C68.2651 20.3286 69.2619 20.6101 69.9341 21.1731C70.6872 21.8096 71.0648 22.7196 71.0648 23.9044ZM69.7886 23.9372C69.7886 23.0746 69.5553 22.4133 69.0887 21.952C68.622 21.4919 67.9406 21.2613 67.0432 21.2613C66.662 21.2613 66.3375 21.2861 66.0683 21.3381V26.8653C66.2173 26.8879 66.4899 26.8981 66.8861 26.8981C67.8124 26.8981 68.5273 26.646 69.0309 26.1418C69.5345 25.6375 69.7886 24.9027 69.7886 23.9372Z" fill="white"/>
<path d="M77.8316 25.0635C77.8316 25.8831 77.5925 26.5546 77.1144 27.0815C76.6131 27.623 75.949 27.8932 75.1197 27.8932C74.3204 27.8932 73.684 27.6343 73.2093 27.1142C72.7358 26.5953 72.499 25.9408 72.499 25.1516C72.499 24.3264 72.7427 23.6492 73.2324 23.1235C73.7222 22.5978 74.3805 22.3344 75.2098 22.3344C76.009 22.3344 76.6512 22.5932 77.1375 23.1122C77.5995 23.6164 77.8316 24.2676 77.8316 25.0635ZM76.5761 25.1019C76.5761 24.6101 76.4676 24.1884 76.2516 23.8368C75.9975 23.4118 75.636 23.1992 75.1659 23.1992C74.6797 23.1992 74.3101 23.4118 74.056 23.8368C73.8388 24.1884 73.7314 24.6169 73.7314 25.1234C73.7314 25.6152 73.84 26.0368 74.056 26.3884C74.3181 26.8135 74.6831 27.0261 75.1544 27.0261C75.6163 27.0261 75.979 26.8101 76.24 26.3771C76.4641 26.0188 76.5761 25.5937 76.5761 25.1019Z" fill="white"/>
<path d="M86.9062 22.4452L85.2026 27.7745H84.0938L83.3881 25.4603C83.209 24.8826 83.0635 24.3083 82.9503 23.7385H82.9284C82.8233 24.3241 82.6777 24.8973 82.4906 25.4603L81.741 27.7745H80.6195L79.0176 22.4452H80.2615L80.8771 24.9787C81.0261 25.5779 81.1485 26.1488 81.2467 26.6892H81.2687C81.3587 26.2437 81.5077 25.6762 81.7179 24.99L82.4906 22.4463H83.477L84.2174 24.9357C84.3964 25.5428 84.5419 26.1273 84.6539 26.6903H84.6874C84.7694 26.142 84.893 25.5575 85.057 24.9357L85.7177 22.4463H86.9062V22.4452Z" fill="white"/>
<path d="M93.1806 27.7756H91.9702V24.7232C91.9702 23.7826 91.6052 23.3123 90.873 23.3123C90.5137 23.3123 90.2239 23.4411 89.9986 23.7C89.7757 23.9589 89.6625 24.2642 89.6625 24.6135V27.7745H88.4521V23.9691C88.4521 23.5011 88.4371 22.9935 88.4082 22.444H89.4719L89.5285 23.2772H89.562C89.703 23.0183 89.9132 22.8047 90.1892 22.6339C90.5172 22.435 90.8845 22.3344 91.2864 22.3344C91.7946 22.3344 92.2174 22.4949 92.5535 22.8171C92.9716 23.2117 93.1806 23.8007 93.1806 24.583V27.7756Z" fill="white"/>
<path d="M96.5179 27.7747H95.3086V20H96.5179V27.7747Z" fill="white"/>
<path d="M103.645 25.0635C103.645 25.8831 103.406 26.5546 102.928 27.0815C102.427 27.623 101.761 27.8932 100.933 27.8932C100.133 27.8932 99.4964 27.6343 99.0228 27.1142C98.5493 26.5953 98.3125 25.9408 98.3125 25.1516C98.3125 24.3264 98.5562 23.6492 99.0459 23.1235C99.5356 22.5978 100.194 22.3344 101.022 22.3344C101.823 22.3344 102.464 22.5932 102.951 23.1122C103.413 23.6164 103.645 24.2676 103.645 25.0635ZM102.388 25.1019C102.388 24.6101 102.28 24.1884 102.064 23.8368C101.811 23.4118 101.448 23.1992 100.979 23.1992C100.492 23.1992 100.122 23.4118 99.8694 23.8368C99.6523 24.1884 99.5449 24.6169 99.5449 25.1234C99.5449 25.6152 99.6534 26.0368 99.8694 26.3884C100.132 26.8135 100.497 27.0261 100.968 27.0261C101.43 27.0261 101.791 26.8101 102.052 26.3771C102.278 26.0188 102.388 25.5937 102.388 25.1019Z" fill="white"/>
<path d="M109.503 27.7722H108.416L108.326 27.1583H108.293C107.921 27.6479 107.391 27.8932 106.702 27.8932C106.188 27.8932 105.772 27.7315 105.459 27.4104C105.175 27.1188 105.033 26.7559 105.033 26.3251C105.033 25.6739 105.31 25.1776 105.868 24.834C106.425 24.4903 107.208 24.3218 108.216 24.3297V24.2303C108.216 23.5282 107.84 23.1777 107.086 23.1777C106.549 23.1777 106.075 23.31 105.666 23.5723L105.42 22.7945C105.926 22.4881 106.551 22.3344 107.288 22.3344C108.711 22.3344 109.424 23.0692 109.424 24.5389V26.5015C109.424 27.034 109.451 27.4579 109.503 27.7722ZM108.246 25.9407V25.1189C106.911 25.0962 106.244 25.4546 106.244 26.1929C106.244 26.471 106.32 26.679 106.476 26.818C106.632 26.9571 106.83 27.0261 107.067 27.0261C107.333 27.0261 107.581 26.9435 107.807 26.7796C108.035 26.6145 108.175 26.4054 108.227 26.1488C108.239 26.0911 108.246 26.021 108.246 25.9407Z" fill="white"/>
<path d="M116.38 27.7747H115.305L115.249 26.9188H115.215C114.872 27.57 114.288 27.8956 113.467 27.8956C112.811 27.8956 112.264 27.6435 111.831 27.1393C111.398 26.6351 111.182 25.9805 111.182 25.1767C111.182 24.3141 111.417 23.6154 111.888 23.0818C112.344 22.5844 112.903 22.3357 113.568 22.3357C114.299 22.3357 114.811 22.5765 115.102 23.0592H115.125V20H116.337V26.3389C116.337 26.8578 116.351 27.336 116.38 27.7747ZM115.125 25.5272V24.6386C115.125 24.4848 115.114 24.3605 115.092 24.2655C115.024 23.9806 114.877 23.7409 114.654 23.5476C114.429 23.3543 114.157 23.2571 113.844 23.2571C113.393 23.2571 113.039 23.4323 112.779 23.7839C112.522 24.1355 112.391 24.5843 112.391 25.1326C112.391 25.6594 112.515 26.0868 112.763 26.4158C113.025 26.7662 113.379 26.9415 113.821 26.9415C114.219 26.9415 114.536 26.7956 114.778 26.5028C115.011 26.2326 115.125 25.907 115.125 25.5272Z" fill="white"/>
<path d="M126.734 25.0635C126.734 25.8831 126.495 26.5546 126.017 27.0815C125.515 27.623 124.852 27.8932 124.022 27.8932C123.224 27.8932 122.588 27.6343 122.112 27.1142C121.638 26.5953 121.401 25.9408 121.401 25.1516C121.401 24.3264 121.645 23.6492 122.135 23.1235C122.625 22.5978 123.283 22.3344 124.113 22.3344C124.911 22.3344 125.555 22.5932 126.04 23.1122C126.502 23.6164 126.734 24.2676 126.734 25.0635ZM125.48 25.1019C125.48 24.6101 125.371 24.1884 125.155 23.8368C124.9 23.4118 124.539 23.1992 124.068 23.1992C123.583 23.1992 123.214 23.4118 122.958 23.8368C122.741 24.1884 122.634 24.6169 122.634 25.1234C122.634 25.6152 122.742 26.0368 122.958 26.3884C123.22 26.8135 123.585 27.0261 124.057 27.0261C124.519 27.0261 124.883 26.8101 125.144 26.3771C125.366 26.0188 125.48 25.5937 125.48 25.1019Z" fill="white"/>
<path d="M133.241 27.7756H132.032V24.7232C132.032 23.7826 131.667 23.3123 130.933 23.3123C130.574 23.3123 130.284 23.4411 130.06 23.7C129.836 23.9589 129.724 24.2642 129.724 24.6135V27.7745H128.512V23.9691C128.512 23.5011 128.499 22.9935 128.47 22.444H129.532L129.589 23.2772H129.622C129.764 23.0183 129.975 22.8047 130.25 22.6339C130.579 22.435 130.945 22.3344 131.348 22.3344C131.855 22.3344 132.278 22.4949 132.614 22.8171C133.033 23.2117 133.241 23.8007 133.241 24.583V27.7756Z" fill="white"/>
<path d="M141.388 23.3303H140.055V25.9192C140.055 26.5772 140.292 26.9062 140.761 26.9062C140.978 26.9062 141.158 26.8881 141.3 26.8508L141.331 27.7496C141.092 27.8377 140.778 27.8818 140.391 27.8818C139.913 27.8818 139.541 27.7394 139.272 27.4545C139.002 27.1696 138.868 26.6902 138.868 26.0176V23.3303H138.072V22.4428H138.868V21.4661L140.054 21.1156V22.4417H141.387V23.3303H141.388Z" fill="white"/>
<path d="M147.795 27.7747H146.583V24.7448C146.583 23.7895 146.218 23.3113 145.487 23.3113C144.926 23.3113 144.542 23.5883 144.332 24.1423C144.296 24.2587 144.276 24.4012 144.276 24.5685V27.7735H143.066V20H144.276V23.2118H144.299C144.68 22.6274 145.226 22.3357 145.934 22.3357C146.436 22.3357 146.85 22.4962 147.179 22.8184C147.589 23.2198 147.795 23.8167 147.795 24.6058V27.7747Z" fill="white"/>
<path d="M154.406 24.858C154.406 25.0705 154.389 25.2491 154.36 25.395H150.73C150.747 25.9218 150.92 26.3231 151.256 26.6013C151.563 26.85 151.959 26.9743 152.444 26.9743C152.981 26.9743 153.471 26.8907 153.912 26.7222L154.102 27.5452C153.585 27.7646 152.978 27.8742 152.275 27.8742C151.431 27.8742 150.767 27.6312 150.287 27.145C149.804 26.6589 149.565 26.0066 149.565 25.1881C149.565 24.3843 149.788 23.715 150.237 23.1814C150.706 22.6116 151.34 22.3267 152.141 22.3267C152.924 22.3267 153.518 22.6116 153.92 23.1814C154.245 23.6336 154.406 24.1932 154.406 24.858ZM153.251 24.5516C153.26 24.2 153.18 23.897 153.016 23.6415C152.806 23.3125 152.486 23.1475 152.053 23.1475C151.658 23.1475 151.336 23.308 151.09 23.6302C150.889 23.8868 150.77 24.1932 150.73 24.5516H153.251Z" fill="white"/>
</svg>
