<svg width="180" height="72" viewBox="0 0 180 72" fill="none" xmlns="http://www.w3.org/2000/svg">
<rect x="1" y="1" width="178" height="70" rx="4" stroke="white" stroke-width="2"/>
<path d="M89.6518 37.9213C88.6895 37.9261 87.7502 38.2292 86.9523 38.7926C86.1544 39.356 85.5337 40.1543 85.1686 41.0868C84.8035 42.0192 84.7104 43.0441 84.9009 44.032C85.0914 45.0199 85.557 45.9265 86.239 46.6375C86.921 47.3485 87.7889 47.8319 88.733 48.0268C89.6771 48.2217 90.6552 48.1193 91.5438 47.7325C92.4323 47.3457 93.1916 46.6919 93.7258 45.8536C94.2599 45.0153 94.545 44.0301 94.545 43.0222C94.5543 42.3476 94.434 41.678 94.1911 41.0531C93.9482 40.4282 93.5877 39.8609 93.1312 39.385C92.6746 38.909 92.1313 38.5342 91.5335 38.2827C90.9358 38.0313 90.2958 37.9084 89.6518 37.9213ZM89.6518 46.1188C89.06 46.1621 88.4695 46.018 87.9569 45.7052C87.4444 45.3923 87.0335 44.9252 86.7778 44.3646C86.5221 43.8039 86.4333 43.1757 86.523 42.5615C86.6127 41.9473 86.8768 41.3756 87.2808 40.9207C87.6849 40.4658 88.2102 40.1487 88.7886 40.0106C89.3671 39.8726 89.9717 39.9199 90.5241 40.1466C91.0764 40.3733 91.5509 40.7687 91.8858 41.2816C92.2208 41.7944 92.4006 42.4009 92.4021 43.0222C92.4205 43.4159 92.3635 43.8095 92.2345 44.1797C92.1054 44.55 91.9068 44.8894 91.6505 45.178C91.3942 45.4666 91.0853 45.6985 90.742 45.8601C90.3987 46.0217 90.028 46.1096 89.6518 46.1188ZM78.9831 37.9213C78.0203 37.9237 77.0798 38.2249 76.2804 38.7868C75.481 39.3487 74.8586 40.1462 74.4917 41.0785C74.1248 42.0108 74.03 43.036 74.2192 44.0247C74.4084 45.0134 74.8732 45.9211 75.5548 46.6333C76.2363 47.3455 77.1042 47.8301 78.0486 48.026C78.993 48.2218 79.9717 48.1201 80.8609 47.7337C81.7502 47.3473 82.5101 46.6935 83.0448 45.8549C83.5794 45.0163 83.8648 44.0306 83.8648 43.0222C83.8741 42.3476 83.7538 41.678 83.5109 41.0531C83.268 40.4282 82.9075 39.8609 82.451 39.385C81.9944 38.909 81.4511 38.5342 80.8533 38.2827C80.2556 38.0313 79.6156 37.9084 78.9716 37.9213H78.9831ZM78.9831 46.1188C78.391 46.1646 77.7995 46.0226 77.2855 45.7114C76.7715 45.4001 76.3589 44.934 76.1014 44.3738C75.8439 43.8135 75.7534 43.185 75.8417 42.5701C75.93 41.9552 76.193 41.3824 76.5964 40.9263C76.9999 40.4701 77.5251 40.1517 78.1037 40.0126C78.6824 39.8735 79.2876 39.92 79.8406 40.1461C80.3937 40.3723 80.8689 40.7676 81.2044 41.2806C81.5399 41.7935 81.7203 42.4004 81.7219 43.0222C81.7403 43.4159 81.6833 43.8095 81.5543 44.1797C81.4252 44.55 81.2266 44.8894 80.9703 45.178C80.714 45.4666 80.4051 45.6985 80.0618 45.8601C79.7185 46.0217 79.3478 46.1096 78.9716 46.1188H78.9831ZM66.2745 39.4936V41.654H71.225C71.1474 42.6715 70.7435 43.6317 70.0791 44.3785C69.5838 44.9068 68.9884 45.3208 68.3312 45.5936C67.674 45.8665 66.9695 45.9922 66.2631 45.9627C64.8042 45.9627 63.4052 45.3558 62.3736 44.2754C61.3421 43.195 60.7625 41.7296 60.7625 40.2017C60.7625 38.6738 61.3421 37.2085 62.3736 36.1281C63.4052 35.0477 64.8042 34.4407 66.2631 34.4407C67.6586 34.4169 69.0062 34.9737 70.0103 35.989L71.4657 34.4647C70.7878 33.7458 69.9791 33.1767 69.0874 32.7912C68.1957 32.4057 67.2392 32.2115 66.2745 32.2203C65.2558 32.1788 64.2395 32.3531 63.2866 32.7328C62.3337 33.1124 61.4638 33.6897 60.729 34.4299C59.9942 35.1701 59.4097 36.0581 59.0104 37.0406C58.6111 38.0231 58.4053 39.0799 58.4053 40.1477C58.4053 41.2155 58.6111 42.2723 59.0104 43.2548C59.4097 44.2373 59.9942 45.1253 60.729 45.8655C61.4638 46.6057 62.3337 47.183 63.2866 47.5627C64.2395 47.9423 65.2558 48.1166 66.2745 48.0751C67.2554 48.1215 68.2344 47.9474 69.1456 47.5644C70.0569 47.1814 70.8792 46.5984 71.5573 45.8547C72.7579 44.4732 73.3989 42.6571 73.345 40.7898C73.3487 40.3349 73.3103 39.8807 73.2304 39.4336L66.2745 39.4936ZM118.197 41.1739C117.898 40.253 117.34 39.4489 116.595 38.8681C115.85 38.2873 114.954 37.9571 114.026 37.9213C113.399 37.92 112.779 38.0534 112.203 38.3132C111.627 38.573 111.109 38.9537 110.679 39.4318C110.25 39.9099 109.918 40.4752 109.705 41.0927C109.493 41.7103 109.403 42.367 109.442 43.0222C109.428 43.693 109.544 44.3599 109.781 44.983C110.019 45.6061 110.374 46.1726 110.825 46.6487C111.277 47.1249 111.815 47.5008 112.408 47.7541C113.002 48.0075 113.638 48.133 114.278 48.1231C115.08 48.1276 115.87 47.9239 116.578 47.5301C117.286 47.1363 117.889 46.5648 118.335 45.8667L116.673 44.6665C116.425 45.0995 116.074 45.4577 115.654 45.7059C115.234 45.9542 114.76 46.084 114.278 46.0828C113.782 46.1026 113.291 45.9655 112.87 45.6894C112.449 45.4133 112.117 45.0108 111.918 44.5345L118.438 41.714L118.197 41.1739ZM111.551 42.8782C111.528 42.507 111.575 42.1346 111.691 41.7829C111.807 41.4313 111.989 41.1073 112.226 40.8301C112.463 40.5529 112.75 40.328 113.071 40.1686C113.392 40.0092 113.74 39.9184 114.095 39.9017C114.464 39.8762 114.833 39.9649 115.155 40.157C115.477 40.349 115.738 40.6358 115.905 40.9819L111.551 42.8782ZM106.257 47.8231H108.399V32.8204H106.257V47.8231ZM102.75 39.0615H102.67C102.347 38.6833 101.951 38.3809 101.509 38.1741C101.066 37.9672 100.587 37.8606 100.103 37.8613C98.8505 37.9249 97.6696 38.4907 96.8048 39.4415C95.9399 40.3922 95.4575 41.6551 95.4575 42.9682C95.4575 44.2814 95.9399 45.5442 96.8048 46.4949C97.6696 47.4457 98.8505 48.0115 100.103 48.0751C100.588 48.0837 101.07 47.9806 101.513 47.7733C101.957 47.5659 102.352 47.2593 102.67 46.8749H102.738V47.607C102.738 49.5634 101.742 50.6076 100.137 50.6076C99.6029 50.5945 99.0843 50.4151 98.6476 50.0924C98.2109 49.7696 97.8758 49.3181 97.6849 48.7952L95.817 49.6114C96.1686 50.5072 96.7677 51.2725 97.5374 51.8093C98.3072 52.346 99.2125 52.6297 100.137 52.6239C102.647 52.6239 104.721 51.0756 104.721 47.307V38.2214H102.75V39.0615ZM100.298 46.1188C99.5584 46.0505 98.8705 45.6948 98.3693 45.1216C97.8682 44.5484 97.5902 43.7994 97.5902 43.0222C97.5902 42.245 97.8682 41.496 98.3693 40.9228C98.8705 40.3497 99.5584 39.9939 100.298 39.9257C100.664 39.9454 101.023 40.0417 101.354 40.209C101.684 40.3762 101.979 40.6111 102.221 40.8996C102.464 41.1882 102.649 41.5247 102.765 41.8892C102.881 42.2537 102.927 42.639 102.899 43.0222C102.93 43.4071 102.887 43.7947 102.771 44.1614C102.655 44.5281 102.469 44.8665 102.225 45.1559C101.981 45.4454 101.683 45.68 101.35 45.8455C101.017 46.0109 100.655 46.1039 100.286 46.1188H100.298ZM128.236 32.8204H123.113V47.8231H125.256V42.1341H128.247C128.858 42.18 129.471 42.0937 130.049 41.8805C130.626 41.6673 131.155 41.3318 131.604 40.8948C132.052 40.4579 132.409 39.929 132.654 39.341C132.898 38.753 133.024 38.1185 133.024 37.4772C133.024 36.8359 132.898 36.2015 132.654 35.6135C132.409 35.0255 132.052 34.4966 131.604 34.0596C131.155 33.6227 130.626 33.2872 130.049 33.074C129.471 32.8608 128.858 32.7745 128.247 32.8204H128.236ZM128.236 40.0217H125.245V34.9088H128.282C128.934 34.9088 129.559 35.18 130.02 35.6628C130.481 36.1456 130.74 36.8004 130.74 37.4832C130.74 38.166 130.481 38.8208 130.02 39.3037C129.559 39.7865 128.934 40.0577 128.282 40.0577L128.236 40.0217ZM141.448 37.8613C140.668 37.8125 139.892 38.0034 139.214 38.4107C138.536 38.8179 137.986 39.4238 137.633 40.1537L139.535 40.9819C139.722 40.6198 140.006 40.3227 140.352 40.1266C140.698 39.9306 141.091 39.8441 141.483 39.8777C141.755 39.8444 142.031 39.8682 142.294 39.9477C142.557 40.0271 142.802 40.1607 143.016 40.3406C143.229 40.5205 143.406 40.743 143.536 40.9953C143.667 41.2476 143.748 41.5246 143.775 41.81V41.966C143.087 41.5844 142.319 41.3865 141.54 41.3899C139.489 41.3899 137.415 42.5901 137.415 44.7625C137.435 45.2257 137.544 45.68 137.734 46.0984C137.925 46.5169 138.194 46.891 138.525 47.1987C138.857 47.5064 139.243 47.7415 139.663 47.8899C140.082 48.0384 140.526 48.0973 140.967 48.0631C141.507 48.1037 142.047 47.9914 142.531 47.738C143.015 47.4846 143.425 47.0994 143.717 46.6229H143.786V47.8231H145.849V42.05C145.849 39.4216 143.947 37.8973 141.506 37.8973L141.448 37.8613ZM141.185 46.0828C140.486 46.0828 139.512 45.7107 139.512 44.8105C139.512 43.6103 140.727 43.2143 141.804 43.2143C142.484 43.1967 143.157 43.3707 143.752 43.7183C143.68 44.3681 143.387 44.9689 142.926 45.41C142.464 45.8511 141.867 46.1028 141.242 46.1188L141.185 46.0828ZM153.366 38.2214L150.914 44.7265H150.845L148.301 38.2214H146.009L149.825 47.319L147.648 52.3719H149.883L155.75 38.2214H153.366ZM134.103 47.8231H136.246V32.8204H134.103V47.8231Z" fill="white"/>
<path d="M65.8369 24.1839C65.8563 24.6241 65.7902 25.0639 65.6425 25.4765C65.4947 25.8892 65.2685 26.2661 64.9774 26.5843C64.6524 26.9379 64.2599 27.2158 63.8256 27.3998C63.3912 27.5839 62.9246 27.67 62.4563 27.6525C61.7458 27.6467 61.0528 27.4214 60.464 27.0048C59.8752 26.5883 59.4169 25.999 59.1465 25.3108C58.8761 24.6226 58.8056 23.8662 58.9439 23.1362C59.0821 22.4063 59.423 21.7353 59.9238 21.2074C60.2529 20.8555 60.6475 20.578 61.0831 20.3922C61.5187 20.2064 61.9861 20.1162 62.4563 20.1272C62.9408 20.1255 63.4205 20.2276 63.8658 20.4272C64.2805 20.6024 64.6496 20.878 64.943 21.2314L64.3357 21.8675C64.107 21.5826 63.8181 21.3572 63.4919 21.2093C63.1658 21.0614 62.8112 20.995 62.4563 21.0153C62.0984 21.0135 61.7438 21.0874 61.4137 21.2326C61.0837 21.3777 60.7851 21.5912 60.5358 21.8602C60.2864 22.1292 60.0915 22.4482 59.9627 22.7979C59.8339 23.1477 59.7739 23.5212 59.7863 23.8958C59.7788 24.4553 59.9296 25.0046 60.2198 25.4743C60.51 25.9441 60.9266 26.3133 61.4169 26.5354C61.9072 26.7575 62.4493 26.8226 62.9749 26.7223C63.5005 26.6221 63.986 26.3611 64.3701 25.9722C64.7227 25.572 64.926 25.0523 64.943 24.508H62.4563V23.6438H65.791C65.8216 23.8221 65.8369 24.0028 65.8369 24.1839ZM71.0853 21.1834H67.9912V23.4638H70.8103V24.3279H67.9912V26.6083H71.0853V27.4965H67.0745V20.2952H71.0853V21.1834ZM74.844 27.4965H73.9616V21.1834H72.0364V20.2952H76.815V21.1834H74.844V27.4965ZM80.1841 27.4965V20.2952H81.0665V27.4965H80.1841ZM84.9856 27.4965H84.1032V21.1834H82.178V20.2952H86.8993V21.1834H84.9856V27.4965ZM95.8492 26.5603C95.1792 27.2581 94.2729 27.6497 93.3281 27.6497C92.3833 27.6497 91.4769 27.2581 90.807 26.5603C90.1558 25.8384 89.7931 24.883 89.7931 23.8898C89.7931 22.8967 90.1558 21.9413 90.807 21.2194C91.1372 20.871 91.53 20.5945 91.9626 20.4058C92.3953 20.2172 92.8594 20.12 93.3281 20.12C93.7968 20.12 94.2608 20.2172 94.6935 20.4058C95.1262 20.5945 95.519 20.871 95.8492 21.2194C96.5029 21.9399 96.8674 22.8959 96.8674 23.8898C96.8674 24.8838 96.5029 25.8398 95.8492 26.5603ZM91.4602 25.9602C91.9563 26.4777 92.6279 26.7682 93.3281 26.7682C94.0282 26.7682 94.6999 26.4777 95.196 25.9602C95.6856 25.3949 95.9568 24.6591 95.9568 23.8958C95.9568 23.1326 95.6856 22.3968 95.196 21.8315C94.6999 21.314 94.0282 21.0235 93.3281 21.0235C92.6279 21.0235 91.9563 21.314 91.4602 21.8315C90.9706 22.3968 90.6994 23.1326 90.6994 23.8958C90.6994 24.6591 90.9706 25.3949 91.4602 25.9602ZM98.1067 27.4965V20.2952H99.1839L102.53 25.9002V20.2952H103.412V27.4965H102.496L99.0005 21.6274V27.4965H98.1067Z" fill="white"/>
<path fill-rule="evenodd" clip-rule="evenodd" d="M93.3281 20.24C92.8745 20.24 92.4254 20.334 92.0067 20.5166C91.5884 20.699 91.2087 20.9662 90.8893 21.3029C90.2589 22.0024 89.9077 22.9279 89.9077 23.8898C89.9077 24.8517 90.2588 25.7771 90.8891 26.4765C91.5374 27.1511 92.4142 27.5297 93.3281 27.5297C94.242 27.5297 95.1189 27.151 95.7672 26.4764C96.4 25.7783 96.7528 24.8525 96.7528 23.8898C96.7528 22.9271 96.3999 22.0011 95.767 21.303C95.4476 20.9663 95.0678 20.6991 94.6495 20.5166C94.2307 20.334 93.7817 20.24 93.3281 20.24ZM91.9186 20.295C92.3652 20.1003 92.8443 20 93.3281 20C93.8119 20 94.2909 20.1003 94.7376 20.295C95.1842 20.4898 95.5896 20.7752 95.9305 21.1348L95.9322 21.1367C96.6062 21.8795 96.982 22.8651 96.982 23.8898C96.982 24.9146 96.6062 25.9002 95.9322 26.643L95.93 26.6455C95.2386 27.3656 94.3031 27.7697 93.3281 27.7697C92.353 27.7697 91.4176 27.3655 90.7262 26.6454L90.7237 26.6428C90.0524 25.8986 89.6785 24.9136 89.6785 23.8898C89.6785 22.8661 90.0524 21.8811 90.7237 21.137L90.7256 21.1348C91.0665 20.7752 91.472 20.4898 91.9186 20.295ZM62.4538 20.2472C61.9992 20.2366 61.5474 20.3238 61.1263 20.5034C60.7052 20.683 60.3238 20.9512 60.0056 21.2914L60.0051 21.292C59.5202 21.8031 59.1901 22.4528 59.0563 23.1596C58.9224 23.8664 58.9906 24.5988 59.2525 25.2651C59.5143 25.9314 59.958 26.502 60.5281 26.9054C61.0982 27.3087 61.7693 27.5269 62.4572 27.5325L62.4604 27.5325C62.9126 27.5494 63.3631 27.4663 63.7826 27.2886C64.202 27.1109 64.5809 26.8426 64.8947 26.5012C65.175 26.1947 65.3929 25.8318 65.5352 25.4344C65.6775 25.037 65.7411 24.6134 65.7224 24.1895L65.8369 24.1839L65.7223 24.1839C65.7223 24.0433 65.7127 23.9029 65.6935 23.7638H62.5709V24.3879H65.0614L65.0576 24.5119C65.0397 25.085 64.8255 25.6322 64.4543 26.0536L64.4498 26.0587C64.0495 26.464 63.5433 26.7359 62.9954 26.8404C62.4476 26.9449 61.8825 26.8771 61.3714 26.6456C60.8603 26.4141 60.4261 26.0292 60.1236 25.5395C59.8216 25.0507 59.6644 24.4792 59.6717 23.8971C59.6592 23.5072 59.7218 23.1187 59.8558 22.7548C59.9902 22.3899 60.1935 22.0572 60.4535 21.7766C60.7136 21.496 61.0251 21.2733 61.3694 21.1219C61.7126 20.9709 62.0813 20.8939 62.4535 20.8953C62.825 20.8746 63.196 20.9444 63.5375 21.0992C63.8417 21.2372 64.1151 21.4393 64.3407 21.6925L64.7849 21.2272C64.5159 20.9278 64.1878 20.6927 63.823 20.5385L63.8207 20.5376C63.3897 20.3444 62.9255 20.2456 62.4567 20.2472L62.4538 20.2472ZM65.9515 24.1811C65.9713 24.6367 65.9026 25.0917 65.7498 25.5187C65.5966 25.9465 65.3619 26.3373 65.0602 26.6673C64.724 27.0331 64.3178 27.3207 63.8685 27.5111C63.4197 27.7013 62.9377 27.7903 62.4538 27.7725C61.7213 27.7662 61.0069 27.5337 60.3998 27.1043C59.7924 26.6745 59.3195 26.0665 59.0405 25.3565C58.7615 24.6465 58.6888 23.866 58.8315 23.1129C58.9741 22.3599 59.3257 21.6677 59.8422 21.1231C60.1822 20.7596 60.5899 20.473 61.0399 20.2811C61.4896 20.0893 61.972 19.996 62.4574 20.0072C62.9566 20.0056 63.4508 20.1109 63.9098 20.3164C64.3408 20.4987 64.7245 20.7852 65.0295 21.1526L65.0996 21.2371L64.3284 22.0449L64.248 21.9447C64.0307 21.674 63.7563 21.46 63.4464 21.3195C63.1365 21.179 62.7997 21.1159 62.4626 21.1352L62.4558 21.1356C62.1132 21.1338 61.7739 21.2043 61.4581 21.3432C61.1423 21.4821 60.8566 21.6864 60.618 21.9438C60.3794 22.2012 60.1929 22.5064 60.0697 22.8411C59.9464 23.1758 59.889 23.5332 59.9008 23.8917L59.901 23.8975C59.8938 24.4333 60.0381 24.9593 60.316 25.4091C60.5939 25.859 60.9928 26.2126 61.4624 26.4253C61.9319 26.638 62.4511 26.7002 62.9544 26.6043C63.4566 26.5085 63.9206 26.2594 64.288 25.8883C64.5938 25.5401 64.7806 25.0969 64.8212 24.628H62.3417V23.5238H65.8869L65.9038 23.6226C65.9354 23.8069 65.9514 23.9939 65.9515 24.1811ZM66.9599 20.1752H71.1999V21.3034H68.1058V23.3438H70.9249V24.4479H68.1058V26.4883H71.1999V27.6165H66.9599V20.1752ZM67.1891 20.4152V27.3765H70.9707V26.7284H67.8766V24.2079H70.6957V23.5838H67.8766V21.0633H70.9707V20.4152H67.1891ZM71.9218 20.1752H76.9296V21.3034H74.9586V27.6165H73.847V21.3034H71.9218V20.1752ZM72.151 20.4152V21.0633H74.0762V27.3765H74.7294V21.0633H76.7004V20.4152H72.151ZM80.0695 20.1752H81.1811V27.6165H80.0695V20.1752ZM80.2987 20.4152V27.3765H80.9519V20.4152H80.2987ZM82.0634 20.1752H87.0139V21.3034H85.1002V27.6165H83.9886V21.3034H82.0634V20.1752ZM82.2926 20.4152V21.0633H84.2178V27.3765H84.871V21.0633H86.7847V20.4152H82.2926ZM97.9921 20.1752H99.2474L102.415 25.4819V20.1752H103.527V27.6165H102.432L99.1151 22.0467V27.6165H97.9921V20.1752ZM98.2213 20.4152V27.3765H98.8859V21.2082L102.559 27.3765H103.298V20.4152H102.645V26.3185L99.1204 20.4152H98.2213ZM91.3793 21.7464C91.8969 21.2066 92.5976 20.9035 93.3281 20.9035C94.0585 20.9035 94.7592 21.2066 95.2768 21.7464L95.281 21.7507C95.7897 22.3381 96.0714 23.1028 96.0714 23.8958C96.0714 24.6889 95.7896 25.4535 95.2808 26.0409L95.2769 26.0454C94.7593 26.5852 94.0585 26.8882 93.3281 26.8882C92.5976 26.8882 91.8969 26.5851 91.3793 26.0453L91.4602 25.9602L91.3753 26.0409C90.8666 25.4535 90.5848 24.6889 90.5848 23.8958C90.5848 23.1028 90.8666 22.3382 91.3753 21.7508L91.3793 21.7464ZM91.5431 25.8773C92.0176 26.371 92.6592 26.6481 93.3281 26.6481C93.9969 26.6481 94.6386 26.371 95.113 25.8773C95.5823 25.3344 95.8422 24.6282 95.8422 23.8958C95.8422 23.1635 95.5823 22.4573 95.113 21.9144C94.6386 21.4207 93.9969 21.1436 93.3281 21.1436C92.6592 21.1436 92.0176 21.4207 91.5431 21.9144C91.0739 22.4573 90.814 23.1635 90.814 23.8958C90.814 24.6282 91.0739 25.3344 91.5431 25.8773Z" fill="white"/>
<path d="M23.5947 51.065L37.6332 35.8149L23.6065 20.592C23.2318 20.829 23 21.3777 23 22.096V49.5756C23.005 50.2939 23.2285 50.8025 23.5947 51.065Z" fill="white"/>
<path d="M38.1372 35.3917L42.3189 30.8485L25.2899 20.7048C25.0031 20.5238 24.6774 20.4282 24.3457 20.4277L38.1355 35.3898L38.1372 35.3917Z" fill="white"/>
<path d="M38.1367 36.2371L24.3032 51.2649C24.6504 51.2712 24.9924 51.1728 25.2911 50.9805L42.3537 40.8095L38.1367 36.2371Z" fill="white"/>
<path d="M48.4876 34.5262L42.8208 31.1443L38.5249 35.8115L42.8527 40.5078L48.4859 37.135C49.6838 36.4186 49.6837 35.239 48.4876 34.5262Z" fill="white"/>
</svg>
